# xmcd
#
# Track frame offsets:
#	150
#	9645
#	20002
#	35695
#	51750
#	71462
#	84002
#	95485
#	105515
#	115360
#	128090
#	145550
#	155605
#	169157
#	183882
#	194940
#
# Disc length: 2635 seconds
#
# Revision: 1
# Processed by: cddbd v1.5.2PL0 Copyright (c) Steve Scherf et al.
# Submitted via: audiograbber 1.83.01
#
DISCID=d40a4910
DTITLE=Sid King and the Five Strings - Rockin' on the Radio
DYEAR=1996
DGENRE=Rockabilly
TTITLE0=Rock the Joint
TTITLE1=Little Willie Boogie
TTITLE2=If Tears Could Cry
TTITLE3=In the Jailhouse Now
TTITLE4=Slowly
TTITLE5=Who Put the Turtle in Myrtle's Girdle
TTITLE6=That's All Right
TTITLE7=Five String Hoedown
TTITLE8=That's All Right
TTITLE9=Rock My Soul
TTITLE10=Maybelline
TTITLE11=Wildwood Flower
TTITLE12=There She Goes
TTITLE13=Making Believe
TTITLE14=Flip, Flop and Fly
TTITLE15=Five String Hoedown
EXTD=
EXTT0=
EXTT1=
EXTT2=
EXTT3=
EXTT4=
EXTT5=
EXTT6=
EXTT7=
EXTT8=
EXTT9=
EXTT10=
EXTT11=
EXTT12=
EXTT13=
EXTT14=
EXTT15=
PLAYORDER=
